<?xml version="1.0" standalone="no"?>
<!DOCTYPE svg PUBLIC "-//W3C//DTD SVG 20010904//EN"
 "http://www.w3.org/TR/2001/REC-SVG-20010904/DTD/svg10.dtd">
<svg version="1.0" xmlns="http://www.w3.org/2000/svg"
 width="520.000000pt" height="821.000000pt" viewBox="0 0 520.000000 821.000000"
 preserveAspectRatio="xMidYMid meet">
<metadata>
Created by potrace 1.15, written by Peter Selinger 2001-2017
</metadata>
<g transform="translate(0.000000,821.000000) scale(0.100000,-0.100000)"
fill="#000000" stroke="none">
<path d="M3288 8172 c-345 -291 -854 -760 -1277 -1177 -1307 -1290 -2003
-2298 -2001 -2894 1 -179 79 -346 208 -445 63 -47 558 -303 649 -334 149 -51
60 -70 864 185 l719 228 96 245 c54 135 103 260 111 277 l13 33 -157 79 c-87
43 -181 88 -210 101 l-51 22 -56 -46 c-92 -75 -279 -194 -420 -267 -137 -71
-178 -88 -284 -119 l-63 -19 -9 25 c-26 69 -27 132 -3 226 91 360 320 893 593
1378 379 674 904 1393 1510 2068 206 229 234 262 229 266 -2 2 -97 49 -211
104 l-207 100 -43 -36z"/>
<path d="M3570 4621 c-377 -87 -698 -161 -713 -165 -25 -6 -41 -34 -153 -264
-69 -141 -126 -264 -127 -273 -1 -13 51 -43 201 -118 l203 -101 112 70 c210
132 529 276 657 296 47 8 50 -1 57 -121 5 -89 5 -91 -47 -230 -289 -775 -912
-1725 -1724 -2630 -190 -212 -518 -555 -683 -714 l-173 -166 210 -102 210
-101 187 142 c922 697 1811 1478 2383 2090 552 593 869 1060 986 1451 35 120
45 326 19 425 -35 136 -126 259 -253 344 -37 24 -154 85 -261 136 -106 50
-238 113 -292 141 -54 27 -102 49 -106 48 -5 0 -316 -72 -693 -158z"/>
</g>
</svg>
